{
    "asset" : {
        "generator" : "Khronos glTF Blender I/O v1.5.17",
        "version" : "2.0"
    },
    "extensionsUsed" : [
        "KHR_materials_transmission"
    ],
    "scene" : 0,
    "scenes" : [
        {
            "name" : "Scene",
            "nodes" : [
                0,
                1,
                2,
                3,
                4,
                5,
                6
            ]
        }
    ],
    "nodes" : [
        {
            "name" : "Camera.001",
            "rotation" : [
                0.9492981433868408,
                0.2686242163181305,
                0.044469527900218964,
                0.1571514904499054
            ],
            "translation" : [
                2.12485671043396,
                -4.377466201782227,
                1.1369047164916992
            ]
        },
        {
            "name" : "Camera.002",
            "rotation" : [
                0.782378077507019,
                0.1585012972354889,
                0.22139069437980652,
                -0.5601322650909424
            ],
            "translation" : [
                2.12485671043396,
                -1.1369047164916992,
                -4.377466201782227
            ]
        },
        {
            "name" : "Camera.003",
            "rotation" : [
                0.9492981433868408,
                0.2686242163181305,
                0.044469527900218964,
                0.1571514904499054
            ],
            "translation" : [
                2.12485671043396,
                -4.377466201782227,
                1.1369047164916992
            ]
        },
        {
            "name" : "Starlight Sun",
            "rotation" : [
                0.15688593685626984,
                0.5959259271621704,
                -0.12011588364839554,
                0.7783516645431519
            ],
            "translation" : [
                0,
                10,
                0
            ]
        },
        {
            "name" : "Empty",
            "rotation" : [
                0,
                0.7071068286895752,
                -0.7071068286895752,
                -1.1520232590100932e-07
            ],
            "scale" : [
                1.21748948097229,
                1.21748948097229,
                1.21748948097229
            ],
            "translation" : [
                0,
                0,
                -0.05167688429355621
            ]
        },
        {
            "name" : "Camera",
            "rotation" : [
                -0.1736612170934677,
                -0.4392039477825165,
                0.8771399855613708,
                -0.08698920160531998
            ],
            "translation" : [
                1.1501975059509277,
                -1.6825580596923828,
                -2.345287561416626
            ]
        },
        {
            "mesh" : 0,
            "name" : "phone",
            "rotation" : [
                -0.7071068286895752,
                0,
                0,
                -0.7071068286895752
            ],
            "scale" : [
                0.30000001192092896,
                0.30000001192092896,
                0.30000001192092896
            ],
            "translation" : [
                0,
                -0.001730501651763916,
                0
            ]
        }
    ],
    "materials" : [
        {
            "doubleSided" : true,
            "name" : "Material.003",
            "pbrMetallicRoughness" : {
                "baseColorFactor" : [
                    0.6866855621337891,
                    0.0027316492050886154,
                    0.018500233069062233,
                    1
                ],
                "metallicFactor" : 0,
                "roughnessFactor" : 0
            }
        },
        {
            "doubleSided" : true,
            "name" : "Material.004",
            "pbrMetallicRoughness" : {
                "baseColorFactor" : [
                    0,
                    0,
                    0,
                    1
                ],
                "metallicFactor" : 0,
                "roughnessFactor" : 0
            }
        },
        {
            "doubleSided" : true,
            "name" : "Material.005",
            "pbrMetallicRoughness" : {
                "baseColorFactor" : [
                    0.800000011920929,
                    0.800000011920929,
                    0.800000011920929,
                    1
                ],
                "roughnessFactor" : 0.5
            }
        },
        {
            "name" : "Material.006",
            "pbrMetallicRoughness" : {
                "baseColorFactor" : [
                    0.06656798720359802,
                    0.25193288922309875,
                    0.8000000715255737,
                    1
                ],
                "metallicFactor" : 0,
                "roughnessFactor" : 0.22272726893424988
            }
        },
        {
            "alphaMode" : "BLEND",
            "doubleSided" : true,
            "extensions" : {
                "KHR_materials_transmission" : {
                    "transmissionFactor" : 1
                }
            },
            "name" : "Material.007",
            "pbrMetallicRoughness" : {
                "baseColorFactor" : [
                    0.800000011920929,
                    0.800000011920929,
                    0.800000011920929,
                    1
                ],
                "metallicFactor" : 0,
                "roughnessFactor" : 0
            }
        },
        {
            "alphaMode" : "BLEND",
            "extensions" : {
                "KHR_materials_transmission" : {
                    "transmissionFactor" : 1
                }
            },
            "name" : "Material.008",
            "pbrMetallicRoughness" : {
                "baseColorFactor" : [
                    0.800000011920929,
                    0.800000011920929,
                    0.800000011920929,
                    1
                ],
                "metallicFactor" : 0,
                "roughnessFactor" : 0
            }
        },
        {
            "doubleSided" : true,
            "name" : "Material",
            "pbrMetallicRoughness" : {
                "baseColorFactor" : [
                    0,
                    0,
                    0,
                    1
                ],
                "metallicFactor" : 0,
                "roughnessFactor" : 0.5772727131843567
            }
        },
        {
            "alphaMode" : "BLEND",
            "doubleSided" : true,
            "name" : "samsung-logo-png-samsung-logo-png-2104-1024x338 white",
            "pbrMetallicRoughness" : {
                "baseColorTexture" : {
                    "index" : 0
                },
                "metallicFactor" : 0,
                "roughnessFactor" : 0.5
            }
        }
    ],
    "meshes" : [
        {
            "name" : "Plane.002",
            "primitives" : [
                {
                    "attributes" : {
                        "POSITION" : 0,
                        "NORMAL" : 1,
                        "TEXCOORD_0" : 2
                    },
                    "indices" : 3,
                    "material" : 0
                },
                {
                    "attributes" : {
                        "POSITION" : 4,
                        "NORMAL" : 5,
                        "TEXCOORD_0" : 6
                    },
                    "indices" : 7,
                    "material" : 1
                },
                {
                    "attributes" : {
                        "POSITION" : 8,
                        "NORMAL" : 9,
                        "TEXCOORD_0" : 10
                    },
                    "indices" : 11,
                    "material" : 2
                },
                {
                    "attributes" : {
                        "POSITION" : 12,
                        "NORMAL" : 13,
                        "TEXCOORD_0" : 14
                    },
                    "indices" : 15,
                    "material" : 3
                },
                {
                    "attributes" : {
                        "POSITION" : 16,
                        "NORMAL" : 17,
                        "TEXCOORD_0" : 18
                    },
                    "indices" : 19,
                    "material" : 4
                },
                {
                    "attributes" : {
                        "POSITION" : 20,
                        "NORMAL" : 21,
                        "TEXCOORD_0" : 22
                    },
                    "indices" : 23,
                    "material" : 5
                },
                {
                    "attributes" : {
                        "POSITION" : 24,
                        "NORMAL" : 25,
                        "TEXCOORD_0" : 26
                    },
                    "indices" : 27,
                    "material" : 6
                },
                {
                    "attributes" : {
                        "POSITION" : 28,
                        "NORMAL" : 29,
                        "TEXCOORD_0" : 30
                    },
                    "indices" : 31,
                    "material" : 7
                }
            ]
        }
    ],
    "textures" : [
        {
            "sampler" : 0,
            "source" : 0
        }
    ],
    "images" : [
        {
            "bufferView" : 32,
            "mimeType" : "image/png",
            "name" : "samsung-logo-png-samsung-logo-png-2104-1024x338 white"
        }
    ],
    "accessors" : [
        {
            "bufferView" : 0,
            "componentType" : 5126,
            "count" : 6326,
            "max" : [
                1.0555002689361572,
                0.10200000554323196,
                2.068274736404419
            ],
            "min" : [
                -1.0341373682022095,
                -0.10678576678037643,
                -2.068274736404419
            ],
            "type" : "VEC3"
        },
        {
            "bufferView" : 1,
            "componentType" : 5126,
            "count" : 6326,
            "type" : "VEC3"
        },
        {
            "bufferView" : 2,
            "componentType" : 5126,
            "count" : 6326,
            "type" : "VEC2"
        },
        {
            "bufferView" : 3,
            "componentType" : 5123,
            "count" : 29631,
            "type" : "SCALAR"
        },
        {
            "bufferView" : 4,
            "componentType" : 5126,
            "count" : 1011,
            "max" : [
                0.9854938983917236,
                0.11434633284807205,
                1.9709879159927368
            ],
            "min" : [
                -0.9854938983917236,
                -0.107536181807518,
                -1.9709879159927368
            ],
            "type" : "VEC3"
        },
        {
            "bufferView" : 5,
            "componentType" : 5126,
            "count" : 1011,
            "type" : "VEC3"
        },
        {
            "bufferView" : 6,
            "componentType" : 5126,
            "count" : 1011,
            "type" : "VEC2"
        },
        {
            "bufferView" : 7,
            "componentType" : 5123,
            "count" : 5112,
            "type" : "SCALAR"
        },
        {
            "bufferView" : 8,
            "componentType" : 5126,
            "count" : 1491,
            "max" : [
                0.7297520637512207,
                0.01522042229771614,
                2.0323033332824707
            ],
            "min" : [
                -0.08492743968963623,
                -0.10249819606542587,
                -1.6908189058303833
            ],
            "type" : "VEC3"
        },
        {
            "bufferView" : 9,
            "componentType" : 5126,
            "count" : 1491,
            "type" : "VEC3"
        },
        {
            "bufferView" : 10,
            "componentType" : 5126,
            "count" : 1491,
            "type" : "VEC2"
        },
        {
            "bufferView" : 11,
            "componentType" : 5123,
            "count" : 3384,
            "type" : "SCALAR"
        },
        {
            "bufferView" : 12,
            "componentType" : 5126,
            "count" : 96,
            "max" : [
                0.04457401484251022,
                -0.030857756733894348,
                2.0297329425811768
            ],
            "min" : [
                -0.04457655921578407,
                -0.036548297852277756,
                1.8598806858062744
            ],
            "type" : "VEC3"
        },
        {
            "bufferView" : 13,
            "componentType" : 5126,
            "count" : 96,
            "type" : "VEC3"
        },
        {
            "bufferView" : 14,
            "componentType" : 5126,
            "count" : 96,
            "type" : "VEC2"
        },
        {
            "bufferView" : 15,
            "componentType" : 5123,
            "count" : 132,
            "type" : "SCALAR"
        },
        {
            "bufferView" : 16,
            "componentType" : 5126,
            "count" : 130,
            "max" : [
                0.7297523021697998,
                -0.07480917870998383,
                -1.5997329950332642
            ],
            "min" : [
                0.6113537549972534,
                -0.10824930667877197,
                -1.718131422996521
            ],
            "type" : "VEC3"
        },
        {
            "bufferView" : 17,
            "componentType" : 5126,
            "count" : 130,
            "type" : "VEC3"
        },
        {
            "bufferView" : 18,
            "componentType" : 5126,
            "count" : 130,
            "type" : "VEC2"
        },
        {
            "bufferView" : 19,
            "componentType" : 5123,
            "count" : 372,
            "type" : "SCALAR"
        },
        {
            "bufferView" : 20,
            "componentType" : 5126,
            "count" : 324,
            "max" : [
                0.7297521829605103,
                -0.09728847444057465,
                -1.36970055103302
            ],
            "min" : [
                0.6113535165786743,
                -0.10842232406139374,
                -1.6908190250396729
            ],
            "type" : "VEC3"
        },
        {
            "bufferView" : 21,
            "componentType" : 5126,
            "count" : 324,
            "type" : "VEC3"
        },
        {
            "bufferView" : 22,
            "componentType" : 5126,
            "count" : 324,
            "type" : "VEC2"
        },
        {
            "bufferView" : 23,
            "componentType" : 5123,
            "count" : 924,
            "type" : "SCALAR"
        },
        {
            "bufferView" : 24,
            "componentType" : 5126,
            "count" : 32,
            "max" : [
                -0.5723491311073303,
                0.04927603155374527,
                1.937934398651123
            ],
            "min" : [
                -0.672933042049408,
                -0.05130791664123535,
                1.937934398651123
            ],
            "type" : "VEC3"
        },
        {
            "bufferView" : 25,
            "componentType" : 5126,
            "count" : 32,
            "type" : "VEC3"
        },
        {
            "bufferView" : 26,
            "componentType" : 5126,
            "count" : 32,
            "type" : "VEC2"
        },
        {
            "bufferView" : 27,
            "componentType" : 5123,
            "count" : 90,
            "type" : "SCALAR"
        },
        {
            "bufferView" : 28,
            "componentType" : 5126,
            "count" : 4,
            "max" : [
                0.49182361364364624,
                -0.10232465714216232,
                -0.6501790881156921
            ],
            "min" : [
                -0.49182260036468506,
                -0.10232468694448471,
                -0.9748591184616089
            ],
            "type" : "VEC3"
        },
        {
            "bufferView" : 29,
            "componentType" : 5126,
            "count" : 4,
            "type" : "VEC3"
        },
        {
            "bufferView" : 30,
            "componentType" : 5126,
            "count" : 4,
            "type" : "VEC2"
        },
        {
            "bufferView" : 31,
            "componentType" : 5123,
            "count" : 6,
            "type" : "SCALAR"
        }
    ],
    "bufferViews" : [
        {
            "buffer" : 0,
            "byteLength" : 75912,
            "byteOffset" : 0
        },
        {
            "buffer" : 0,
            "byteLength" : 75912,
            "byteOffset" : 75912
        },
        {
            "buffer" : 0,
            "byteLength" : 50608,
            "byteOffset" : 151824
        },
        {
            "buffer" : 0,
            "byteLength" : 59262,
            "byteOffset" : 202432
        },
        {
            "buffer" : 0,
            "byteLength" : 12132,
            "byteOffset" : 261696
        },
        {
            "buffer" : 0,
            "byteLength" : 12132,
            "byteOffset" : 273828
        },
        {
            "buffer" : 0,
            "byteLength" : 8088,
            "byteOffset" : 285960
        },
        {
            "buffer" : 0,
            "byteLength" : 10224,
            "byteOffset" : 294048
        },
        {
            "buffer" : 0,
            "byteLength" : 17892,
            "byteOffset" : 304272
        },
        {
            "buffer" : 0,
            "byteLength" : 17892,
            "byteOffset" : 322164
        },
        {
            "buffer" : 0,
            "byteLength" : 11928,
            "byteOffset" : 340056
        },
        {
            "buffer" : 0,
            "byteLength" : 6768,
            "byteOffset" : 351984
        },
        {
            "buffer" : 0,
            "byteLength" : 1152,
            "byteOffset" : 358752
        },
        {
            "buffer" : 0,
            "byteLength" : 1152,
            "byteOffset" : 359904
        },
        {
            "buffer" : 0,
            "byteLength" : 768,
            "byteOffset" : 361056
        },
        {
            "buffer" : 0,
            "byteLength" : 264,
            "byteOffset" : 361824
        },
        {
            "buffer" : 0,
            "byteLength" : 1560,
            "byteOffset" : 362088
        },
        {
            "buffer" : 0,
            "byteLength" : 1560,
            "byteOffset" : 363648
        },
        {
            "buffer" : 0,
            "byteLength" : 1040,
            "byteOffset" : 365208
        },
        {
            "buffer" : 0,
            "byteLength" : 744,
            "byteOffset" : 366248
        },
        {
            "buffer" : 0,
            "byteLength" : 3888,
            "byteOffset" : 366992
        },
        {
            "buffer" : 0,
            "byteLength" : 3888,
            "byteOffset" : 370880
        },
        {
            "buffer" : 0,
            "byteLength" : 2592,
            "byteOffset" : 374768
        },
        {
            "buffer" : 0,
            "byteLength" : 1848,
            "byteOffset" : 377360
        },
        {
            "buffer" : 0,
            "byteLength" : 384,
            "byteOffset" : 379208
        },
        {
            "buffer" : 0,
            "byteLength" : 384,
            "byteOffset" : 379592
        },
        {
            "buffer" : 0,
            "byteLength" : 256,
            "byteOffset" : 379976
        },
        {
            "buffer" : 0,
            "byteLength" : 180,
            "byteOffset" : 380232
        },
        {
            "buffer" : 0,
            "byteLength" : 48,
            "byteOffset" : 380412
        },
        {
            "buffer" : 0,
            "byteLength" : 48,
            "byteOffset" : 380460
        },
        {
            "buffer" : 0,
            "byteLength" : 32,
            "byteOffset" : 380508
        },
        {
            "buffer" : 0,
            "byteLength" : 12,
            "byteOffset" : 380540
        },
        {
            "buffer" : 0,
            "byteLength" : 36041,
            "byteOffset" : 380552
        }
    ],
    "samplers" : [
        {
            "magFilter" : 9729,
            "minFilter" : 9987,
            "wrapS" : 33071,
            "wrapT" : 33071
        }
    ],
    "buffers" : [
        {
            "byteLength" : 416596,
            "uri" : "data:application/octet-stream;base64,"
        }
    ]
}
