{
    "asset" : {
        "generator" : "Khronos glTF Blender I/O v1.5.17",
        "version" : "2.0"
    },
    "extensionsUsed" : [
        "KHR_materials_transmission"
    ],
    "scene" : 0,
    "scenes" : [
        {
            "name" : "Scene",
            "nodes" : [
                0,
                1,
                2,
                3,
                4,
                5
            ]
        }
    ],
    "nodes" : [
        {
            "name" : "Camera.001",
            "rotation" : [
                0.9492981433868408,
                0.2686242163181305,
                0.044469527900218964,
                0.1571514904499054
            ],
            "translation" : [
                2.12485671043396,
                -4.377466201782227,
                1.1369047164916992
            ]
        },
        {
            "name" : "Camera.002",
            "rotation" : [
                0.782378077507019,
                0.1585012972354889,
                0.22139069437980652,
                -0.5601322650909424
            ],
            "translation" : [
                2.12485671043396,
                -1.1369047164916992,
                -4.377466201782227
            ]
        },
        {
            "name" : "Camera.003",
            "rotation" : [
                0.9492981433868408,
                0.2686242163181305,
                0.044469527900218964,
                0.1571514904499054
            ],
            "translation" : [
                2.12485671043396,
                -4.377466201782227,
                1.1369047164916992
            ]
        },
        {
            "name" : "Starlight Sun",
            "rotation" : [
                0.15688593685626984,
                0.5959259271621704,
                -0.12011588364839554,
                0.7783516645431519
            ],
            "translation" : [
                0,
                10,
                0
            ]
        },
        {
            "name" : "Camera",
            "rotation" : [
                -0.16999749839305878,
                -0.6114879250526428,
                0.7605869174003601,
                -0.1367148607969284
            ],
            "translation" : [
                0.924475908279419,
                -0.02064359188079834,
                -1.5441144704818726
            ]
        },
        {
            "mesh" : 0,
            "name" : "phone",
            "rotation" : [
                -0.7071068286895752,
                0,
                0,
                -0.7071068286895752
            ],
            "scale" : [
                0.30000001192092896,
                0.30000001192092896,
                0.30000001192092896
            ],
            "translation" : [
                0,
                -0.001730501651763916,
                0
            ]
        }
    ],
    "materials" : [
        {
            "alphaMode" : "BLEND",
            "doubleSided" : true,
            "name" : "samsung-logo-png-samsung-logo-png-2104-1024x338 white",
            "pbrMetallicRoughness" : {
                "baseColorTexture" : {
                    "index" : 0
                },
                "metallicFactor" : 0,
                "roughnessFactor" : 0.5
            }
        },
        {
            "doubleSided" : true,
            "name" : "Material.003",
            "pbrMetallicRoughness" : {
                "baseColorFactor" : [
                    0.6866855621337891,
                    0.0027316492050886154,
                    0.018500233069062233,
                    1
                ],
                "metallicFactor" : 0,
                "roughnessFactor" : 0
            }
        },
        {
            "doubleSided" : true,
            "name" : "Material.004",
            "pbrMetallicRoughness" : {
                "baseColorFactor" : [
                    0,
                    0,
                    0,
                    1
                ],
                "metallicFactor" : 0,
                "roughnessFactor" : 0
            }
        },
        {
            "doubleSided" : true,
            "name" : "Material.005",
            "pbrMetallicRoughness" : {
                "baseColorFactor" : [
                    0.800000011920929,
                    0.800000011920929,
                    0.800000011920929,
                    1
                ],
                "roughnessFactor" : 0.5
            }
        },
        {
            "name" : "Material.006",
            "pbrMetallicRoughness" : {
                "baseColorFactor" : [
                    0.06656798720359802,
                    0.25193288922309875,
                    0.8000000715255737,
                    1
                ],
                "metallicFactor" : 0,
                "roughnessFactor" : 0.22272726893424988
            }
        },
        {
            "alphaMode" : "BLEND",
            "doubleSided" : true,
            "extensions" : {
                "KHR_materials_transmission" : {
                    "transmissionFactor" : 1
                }
            },
            "name" : "Material.007",
            "pbrMetallicRoughness" : {
                "baseColorFactor" : [
                    0.800000011920929,
                    0.800000011920929,
                    0.800000011920929,
                    1
                ],
                "metallicFactor" : 0,
                "roughnessFactor" : 0
            }
        },
        {
            "alphaMode" : "BLEND",
            "extensions" : {
                "KHR_materials_transmission" : {
                    "transmissionFactor" : 1
                }
            },
            "name" : "Material.008",
            "pbrMetallicRoughness" : {
                "baseColorFactor" : [
                    0.800000011920929,
                    0.800000011920929,
                    0.800000011920929,
                    1
                ],
                "metallicFactor" : 0,
                "roughnessFactor" : 0
            }
        },
        {
            "doubleSided" : true,
            "name" : "Material",
            "pbrMetallicRoughness" : {
                "baseColorFactor" : [
                    0,
                    0,
                    0,
                    1
                ],
                "metallicFactor" : 0,
                "roughnessFactor" : 0.5772727131843567
            }
        }
    ],
    "meshes" : [
        {
            "name" : "Plane.002",
            "primitives" : [
                {
                    "attributes" : {
                        "POSITION" : 0,
                        "NORMAL" : 1,
                        "TEXCOORD_0" : 2
                    },
                    "indices" : 3,
                    "material" : 0
                },
                {
                    "attributes" : {
                        "POSITION" : 4,
                        "NORMAL" : 5,
                        "TEXCOORD_0" : 6
                    },
                    "indices" : 7,
                    "material" : 1
                },
                {
                    "attributes" : {
                        "POSITION" : 8,
                        "NORMAL" : 9,
                        "TEXCOORD_0" : 10
                    },
                    "indices" : 11,
                    "material" : 2
                },
                {
                    "attributes" : {
                        "POSITION" : 12,
                        "NORMAL" : 13,
                        "TEXCOORD_0" : 14
                    },
                    "indices" : 15,
                    "material" : 3
                },
                {
                    "attributes" : {
                        "POSITION" : 16,
                        "NORMAL" : 17,
                        "TEXCOORD_0" : 18
                    },
                    "indices" : 19,
                    "material" : 4
                },
                {
                    "attributes" : {
                        "POSITION" : 20,
                        "NORMAL" : 21,
                        "TEXCOORD_0" : 22
                    },
                    "indices" : 23,
                    "material" : 5
                },
                {
                    "attributes" : {
                        "POSITION" : 24,
                        "NORMAL" : 25,
                        "TEXCOORD_0" : 26
                    },
                    "indices" : 27,
                    "material" : 6
                },
                {
                    "attributes" : {
                        "POSITION" : 28,
                        "NORMAL" : 29,
                        "TEXCOORD_0" : 30
                    },
                    "indices" : 31,
                    "material" : 7
                }
            ]
        }
    ],
    "textures" : [
        {
            "sampler" : 0,
            "source" : 0
        }
    ],
    "images" : [
        {
            "bufferView" : 4,
            "mimeType" : "image/png",
            "name" : "samsung-logo-png-samsung-logo-png-2104-1024x338 white"
        }
    ],
    "accessors" : [
        {
            "bufferView" : 0,
            "componentType" : 5126,
            "count" : 610,
            "max" : [
                0.7021566033363342,
                0.015028536319732666,
                2.0495641231536865
            ],
            "min" : [
                -0.49182263016700745,
                -0.11065557599067688,
                -1.6905359029769897
            ],
            "type" : "VEC3"
        },
        {
            "bufferView" : 1,
            "componentType" : 5126,
            "count" : 610,
            "type" : "VEC3"
        },
        {
            "bufferView" : 2,
            "componentType" : 5126,
            "count" : 610,
            "type" : "VEC2"
        },
        {
            "bufferView" : 3,
            "componentType" : 5123,
            "count" : 1560,
            "type" : "SCALAR"
        },
        {
            "bufferView" : 5,
            "componentType" : 5126,
            "count" : 5462,
            "max" : [
                1.0555002689361572,
                0.10200000554323196,
                2.068274736404419
            ],
            "min" : [
                -1.0341373682022095,
                -0.10678576678037643,
                -2.068274736404419
            ],
            "type" : "VEC3"
        },
        {
            "bufferView" : 6,
            "componentType" : 5126,
            "count" : 5462,
            "type" : "VEC3"
        },
        {
            "bufferView" : 7,
            "componentType" : 5126,
            "count" : 5462,
            "type" : "VEC2"
        },
        {
            "bufferView" : 8,
            "componentType" : 5123,
            "count" : 27906,
            "type" : "SCALAR"
        },
        {
            "bufferView" : 9,
            "componentType" : 5126,
            "count" : 959,
            "max" : [
                0.9854938983917236,
                0.11434633284807205,
                1.9709879159927368
            ],
            "min" : [
                -0.9854938983917236,
                -0.107536181807518,
                -1.9709879159927368
            ],
            "type" : "VEC3"
        },
        {
            "bufferView" : 10,
            "componentType" : 5126,
            "count" : 959,
            "type" : "VEC3"
        },
        {
            "bufferView" : 11,
            "componentType" : 5126,
            "count" : 959,
            "type" : "VEC2"
        },
        {
            "bufferView" : 12,
            "componentType" : 5123,
            "count" : 4968,
            "type" : "SCALAR"
        },
        {
            "bufferView" : 13,
            "componentType" : 5126,
            "count" : 1300,
            "max" : [
                0.08492490649223328,
                0.01522042229771614,
                2.0323033332824707
            ],
            "min" : [
                -0.08492743968963623,
                -0.05820133909583092,
                1.8460675477981567
            ],
            "type" : "VEC3"
        },
        {
            "bufferView" : 14,
            "componentType" : 5126,
            "count" : 1300,
            "type" : "VEC3"
        },
        {
            "bufferView" : 15,
            "componentType" : 5126,
            "count" : 1300,
            "type" : "VEC2"
        },
        {
            "bufferView" : 16,
            "componentType" : 5123,
            "count" : 2856,
            "type" : "SCALAR"
        },
        {
            "bufferView" : 17,
            "componentType" : 5126,
            "count" : 96,
            "max" : [
                0.04457401484251022,
                -0.030857756733894348,
                2.0297329425811768
            ],
            "min" : [
                -0.04457655921578407,
                -0.036548297852277756,
                1.8598806858062744
            ],
            "type" : "VEC3"
        },
        {
            "bufferView" : 18,
            "componentType" : 5126,
            "count" : 96,
            "type" : "VEC3"
        },
        {
            "bufferView" : 19,
            "componentType" : 5126,
            "count" : 96,
            "type" : "VEC2"
        },
        {
            "bufferView" : 20,
            "componentType" : 5123,
            "count" : 132,
            "type" : "SCALAR"
        },
        {
            "bufferView" : 21,
            "componentType" : 5126,
            "count" : 130,
            "max" : [
                0.7297523617744446,
                -0.07593818008899689,
                -1.5997331142425537
            ],
            "min" : [
                0.6113538146018982,
                -0.10937830805778503,
                -1.7181315422058105
            ],
            "type" : "VEC3"
        },
        {
            "bufferView" : 22,
            "componentType" : 5126,
            "count" : 130,
            "type" : "VEC3"
        },
        {
            "bufferView" : 23,
            "componentType" : 5126,
            "count" : 130,
            "type" : "VEC2"
        },
        {
            "bufferView" : 24,
            "componentType" : 5123,
            "count" : 372,
            "type" : "SCALAR"
        },
        {
            "bufferView" : 25,
            "componentType" : 5126,
            "count" : 162,
            "max" : [
                0.729752242565155,
                -0.07582149654626846,
                -1.3697007894515991
            ],
            "min" : [
                0.6113536953926086,
                -0.11065557599067688,
                -1.6905359029769897
            ],
            "type" : "VEC3"
        },
        {
            "bufferView" : 26,
            "componentType" : 5126,
            "count" : 162,
            "type" : "VEC3"
        },
        {
            "bufferView" : 27,
            "componentType" : 5126,
            "count" : 162,
            "type" : "VEC2"
        },
        {
            "bufferView" : 28,
            "componentType" : 5123,
            "count" : 462,
            "type" : "SCALAR"
        },
        {
            "bufferView" : 29,
            "componentType" : 5126,
            "count" : 32,
            "max" : [
                -0.5723491311073303,
                0.04927603155374527,
                1.937934398651123
            ],
            "min" : [
                -0.672933042049408,
                -0.05130791664123535,
                1.937934398651123
            ],
            "type" : "VEC3"
        },
        {
            "bufferView" : 30,
            "componentType" : 5126,
            "count" : 32,
            "type" : "VEC3"
        },
        {
            "bufferView" : 31,
            "componentType" : 5126,
            "count" : 32,
            "type" : "VEC2"
        },
        {
            "bufferView" : 32,
            "componentType" : 5123,
            "count" : 90,
            "type" : "SCALAR"
        }
    ],
    "bufferViews" : [
        {
            "buffer" : 0,
            "byteLength" : 7320,
            "byteOffset" : 0
        },
        {
            "buffer" : 0,
            "byteLength" : 7320,
            "byteOffset" : 7320
        },
        {
            "buffer" : 0,
            "byteLength" : 4880,
            "byteOffset" : 14640
        },
        {
            "buffer" : 0,
            "byteLength" : 3120,
            "byteOffset" : 19520
        },
        {
            "buffer" : 0,
            "byteLength" : 36041,
            "byteOffset" : 22640
        },
        {
            "buffer" : 0,
            "byteLength" : 65544,
            "byteOffset" : 58684
        },
        {
            "buffer" : 0,
            "byteLength" : 65544,
            "byteOffset" : 124228
        },
        {
            "buffer" : 0,
            "byteLength" : 43696,
            "byteOffset" : 189772
        },
        {
            "buffer" : 0,
            "byteLength" : 55812,
            "byteOffset" : 233468
        },
        {
            "buffer" : 0,
            "byteLength" : 11508,
            "byteOffset" : 289280
        },
        {
            "buffer" : 0,
            "byteLength" : 11508,
            "byteOffset" : 300788
        },
        {
            "buffer" : 0,
            "byteLength" : 7672,
            "byteOffset" : 312296
        },
        {
            "buffer" : 0,
            "byteLength" : 9936,
            "byteOffset" : 319968
        },
        {
            "buffer" : 0,
            "byteLength" : 15600,
            "byteOffset" : 329904
        },
        {
            "buffer" : 0,
            "byteLength" : 15600,
            "byteOffset" : 345504
        },
        {
            "buffer" : 0,
            "byteLength" : 10400,
            "byteOffset" : 361104
        },
        {
            "buffer" : 0,
            "byteLength" : 5712,
            "byteOffset" : 371504
        },
        {
            "buffer" : 0,
            "byteLength" : 1152,
            "byteOffset" : 377216
        },
        {
            "buffer" : 0,
            "byteLength" : 1152,
            "byteOffset" : 378368
        },
        {
            "buffer" : 0,
            "byteLength" : 768,
            "byteOffset" : 379520
        },
        {
            "buffer" : 0,
            "byteLength" : 264,
            "byteOffset" : 380288
        },
        {
            "buffer" : 0,
            "byteLength" : 1560,
            "byteOffset" : 380552
        },
        {
            "buffer" : 0,
            "byteLength" : 1560,
            "byteOffset" : 382112
        },
        {
            "buffer" : 0,
            "byteLength" : 1040,
            "byteOffset" : 383672
        },
        {
            "buffer" : 0,
            "byteLength" : 744,
            "byteOffset" : 384712
        },
        {
            "buffer" : 0,
            "byteLength" : 1944,
            "byteOffset" : 385456
        },
        {
            "buffer" : 0,
            "byteLength" : 1944,
            "byteOffset" : 387400
        },
        {
            "buffer" : 0,
            "byteLength" : 1296,
            "byteOffset" : 389344
        },
        {
            "buffer" : 0,
            "byteLength" : 924,
            "byteOffset" : 390640
        },
        {
            "buffer" : 0,
            "byteLength" : 384,
            "byteOffset" : 391564
        },
        {
            "buffer" : 0,
            "byteLength" : 384,
            "byteOffset" : 391948
        },
        {
            "buffer" : 0,
            "byteLength" : 256,
            "byteOffset" : 392332
        },
        {
            "buffer" : 0,
            "byteLength" : 180,
            "byteOffset" : 392588
        }
    ],
    "samplers" : [
        {
            "magFilter" : 9729,
            "minFilter" : 9987,
            "wrapS" : 33071,
            "wrapT" : 33071
        }
    ],
    "buffers" : [
        {
            "byteLength" : 392768,
            "uri" : "data:application/octet-stream;base64,"
        }
    ]
}
